<svg width="207" height="41" viewBox="0 0 207 41" fill="none" xmlns="http://www.w3.org/2000/svg">
<path d="M75.8823 17.7246C77.0544 18.9322 77.6409 20.6095 77.6409 22.7562V32.1292H72.7798V23.4173C72.7798 22.3824 72.5081 21.5823 71.9645 21.0161C71.421 20.4507 70.6729 20.1681 69.7203 20.1681C68.7668 20.1681 68.0187 20.4507 67.4761 21.0161C66.9325 21.5814 66.6608 22.3815 66.6608 23.4173V32.1292H61.7997V23.4173C61.7997 22.3824 61.5279 21.5823 60.9844 21.0161C60.4408 20.4507 59.6927 20.1681 58.7401 20.1681C57.7866 20.1681 57.0385 20.4507 56.4959 21.0161C55.9524 21.5814 55.6806 22.3815 55.6806 23.4173V32.1292H50.7906V16.0859H55.6806V18.0983C56.1765 17.4278 56.8247 16.8954 57.625 16.5028C58.4254 16.1103 59.3304 15.9131 60.3418 15.9131C61.5429 15.9131 62.615 16.1723 63.5583 16.6897C64.5015 17.2071 65.2403 17.9453 65.7745 18.9041C66.3273 18.0223 67.0801 17.3039 68.0336 16.7479C68.9862 16.192 70.0257 15.914 71.1501 15.914C73.1319 15.914 74.7103 16.5169 75.8823 17.7246Z" fill="#00EAC7"/>
<path d="M95.2687 17.7397C96.3839 18.9567 96.9414 20.6292 96.9414 22.7572V32.1302H92.0803V23.4183C92.0803 22.345 91.8039 21.511 91.251 20.9166C90.6981 20.3231 89.9547 20.0254 89.0208 20.0254C88.0869 20.0254 87.3435 20.3231 86.7906 20.9166C86.2377 21.511 85.9613 22.345 85.9613 23.4183V32.1302H81.0712V16.0869H85.9613V18.2149C86.4572 17.5058 87.124 16.9452 87.9627 16.533C88.8013 16.1207 89.7446 15.915 90.7934 15.915C92.6622 15.9141 94.1536 16.5226 95.2687 17.7397Z" fill="#00EAC7"/>
<path d="M100.701 13.6565C100.158 13.1485 99.8861 12.5211 99.8861 11.7727C99.8861 11.0064 100.158 10.3688 100.701 9.86072C101.245 9.35267 101.945 9.09912 102.803 9.09912C103.641 9.09912 104.332 9.35361 104.876 9.86072C105.42 10.3688 105.69 11.0064 105.69 11.7727C105.69 12.5202 105.419 13.1485 104.876 13.6565C104.332 14.1645 103.641 14.4181 102.803 14.4181C101.945 14.4181 101.245 14.1645 100.701 13.6565ZM105.234 16.0859V32.1292H100.345V16.0859H105.234Z" fill="#00EAC7"/>
<path d="M123.219 11.9456V15.885H117.901V32.1302H113.011V15.885H107.692V11.9456H123.219Z" fill="white"/>
<path d="M140.633 25.2869H129.567C129.643 26.2833 129.962 27.0458 130.525 27.5726C131.088 28.1004 131.779 28.3633 132.599 28.3633C133.818 28.3633 134.666 27.8459 135.144 26.811H140.347C140.08 27.8656 139.599 28.8141 138.904 29.6574C138.208 30.5007 137.336 31.1628 136.288 31.6417C135.239 32.1206 134.067 32.3601 132.77 32.3601C131.207 32.3601 129.816 32.0248 128.596 31.3534C127.375 30.6829 126.423 29.7241 125.736 28.4779C125.05 27.2317 124.707 25.7752 124.707 24.1074C124.707 22.4396 125.045 20.9831 125.722 19.7369C126.398 18.4908 127.347 17.5329 128.567 16.8614C129.787 16.1909 131.187 15.8547 132.77 15.8547C134.314 15.8547 135.687 16.1806 136.888 16.8323C138.089 17.4841 139.028 18.4138 139.705 19.6214C140.381 20.8291 140.72 22.2377 140.72 23.8482C140.719 24.3093 140.69 24.7882 140.633 25.2869ZM135.715 22.5551C135.715 21.7118 135.429 21.0413 134.858 20.5426C134.286 20.044 133.571 19.7951 132.714 19.7951C131.894 19.7951 131.202 20.0355 130.64 20.5135C130.078 20.9934 129.73 21.6733 129.596 22.5551H135.715Z" fill="white"/>
<path d="M157.49 17.7397C158.605 18.9567 159.162 20.6292 159.162 22.7572V32.1302H154.301V23.4183C154.301 22.345 154.025 21.511 153.472 20.9166C152.919 20.3231 152.176 20.0254 151.242 20.0254C150.308 20.0254 149.564 20.3231 149.011 20.9166C148.459 21.511 148.182 22.345 148.182 23.4183V32.1302H143.293V16.0869H148.182V18.2149C148.678 17.5058 149.345 16.9452 150.184 16.533C151.022 16.1207 151.965 15.915 153.014 15.915C154.882 15.9141 156.374 16.5226 157.49 17.7397Z" fill="white"/>
<path d="M165.338 31.6408C164.252 31.1619 163.394 30.5054 162.765 29.6715C162.136 28.8376 161.783 27.9032 161.707 26.8684H166.539C166.596 27.4243 166.854 27.8751 167.312 28.2197C167.769 28.5643 168.332 28.7371 168.998 28.7371C169.608 28.7371 170.08 28.6179 170.414 28.3775C170.748 28.138 170.915 27.8272 170.915 27.4431C170.915 26.9829 170.677 26.643 170.2 26.4223C169.724 26.2025 168.952 25.9574 167.884 25.6889C166.74 25.4203 165.787 25.1376 165.025 24.8409C164.261 24.5441 163.604 24.0746 163.051 23.4322C162.498 22.7899 162.222 21.9231 162.222 20.8301C162.222 19.9097 162.474 19.0721 162.979 18.3142C163.484 17.5573 164.228 16.9582 165.209 16.5168C166.191 16.0764 167.358 15.8557 168.713 15.8557C170.714 15.8557 172.291 16.3544 173.445 17.3507C174.598 18.348 175.26 19.6703 175.432 21.3184H170.914C170.837 20.7624 170.594 20.322 170.184 19.9961C169.774 19.6703 169.236 19.5078 168.569 19.5078C167.997 19.5078 167.558 19.6186 167.254 19.8384C166.948 20.0591 166.796 20.3605 166.796 20.7437C166.796 21.2038 167.039 21.5484 167.526 21.7785C168.011 22.0086 168.77 22.2387 169.799 22.4687C170.98 22.7758 171.943 23.0773 172.686 23.374C173.43 23.6717 174.083 24.1506 174.645 24.8118C175.207 25.4729 175.498 26.3603 175.517 27.4713C175.517 28.4103 175.255 29.2489 174.731 29.9871C174.206 30.7252 173.453 31.3055 172.472 31.7262C171.489 32.1479 170.351 32.3592 169.054 32.3592C167.664 32.3601 166.424 32.1207 165.338 31.6408Z" fill="white"/>
<path d="M181.565 31.3534C180.317 30.6829 179.335 29.7241 178.62 28.4779C177.905 27.2318 177.548 25.7753 177.548 24.1074C177.548 22.4594 177.91 21.0075 178.635 19.752C179.358 18.4964 180.35 17.5339 181.608 16.8624C182.866 16.1919 184.276 15.8557 185.84 15.8557C187.402 15.8557 188.813 16.191 190.071 16.8624C191.329 17.5339 192.32 18.4964 193.045 19.752C193.769 21.0075 194.132 22.4594 194.132 24.1074C194.132 25.7565 193.765 27.2083 193.031 28.4639C192.297 29.7194 191.296 30.6829 190.028 31.3534C188.76 32.0249 187.345 32.3601 185.782 32.3601C184.219 32.3601 182.814 32.0249 181.565 31.3534ZM188.171 27.0693C188.828 26.3791 189.157 25.3921 189.157 24.1074C189.157 22.8237 188.838 21.8358 188.199 21.1456C187.56 20.4554 186.774 20.1107 185.84 20.1107C184.886 20.1107 184.095 20.4516 183.467 21.1315C182.837 21.8123 182.523 22.804 182.523 24.1074C182.523 25.3921 182.833 26.3791 183.453 27.0693C184.072 27.7595 184.849 28.1042 185.783 28.1042C186.717 28.1042 187.512 27.7595 188.171 27.0693Z" fill="white"/>
<path d="M203.768 16.6757C204.626 16.1676 205.579 15.9141 206.628 15.9141V21.1185H205.284C204.064 21.1185 203.149 21.3824 202.539 21.9092C201.929 22.4369 201.624 23.361 201.624 24.6842V32.1311H196.735V16.0878H201.624V18.7614C202.196 17.8786 202.911 17.1837 203.768 16.6757Z" fill="white"/>
<path d="M24.8349 32.3498V40.4391C14.4562 39.6878 6.26944 30.9844 6.26944 20.3568C6.26944 19.9549 6.28158 19.5558 6.30399 19.1595H0C0 16.9733 0.881625 14.9937 2.30586 13.5616C3.62643 12.2337 5.41396 11.3754 7.39949 11.2571H24.5249C24.5211 13.4376 23.6404 15.4116 22.219 16.8409C20.7938 18.2739 18.8251 19.1595 16.6509 19.1595H14.3367C14.2984 19.553 14.2788 19.9521 14.2788 20.3568C14.2788 26.5332 18.8868 31.6258 24.8349 32.3498Z" fill="#00EAC7"/>
<path d="M46.3171 20.3568C46.3171 30.9985 38.106 39.7122 27.7067 40.4419V32.3545C33.6755 31.6512 38.3068 26.5472 38.3068 20.3568C38.3068 13.6846 33.3038 8.38441 26.6682 8.38441C26.163 8.38441 25.8538 8.37407 24.8004 8.3675H10.2031C13.852 3.42416 19.7002 0.220947 26.2928 0.220947C37.3523 0.221886 46.3171 9.2371 46.3171 20.3568Z" fill="#00EAC7"/>
</svg>
