<svg width="70" height="70" viewBox="0 0 70 70" fill="none" xmlns="http://www.w3.org/2000/svg">
<path d="M58.3333 38.8333H42.8333V37.9167C42.8333 35.2079 40.6254 33 37.9166 33H32.0833C29.3746 33 27.1666 35.2079 27.1666 37.9167V38.8333H11.6666C9.53372 38.8333 7.83331 37.1329 7.83331 35V26.25C7.83331 24.1462 9.56288 22.4167 11.6666 22.4167H23.3333H25.3333V20.4167C25.3333 15.0754 29.6587 10.75 35 10.75C40.3412 10.75 44.6666 15.0754 44.6666 20.4167V22.4167H46.6666H58.3333C60.4371 22.4167 62.1666 24.1462 62.1666 26.25V35C62.1666 37.1038 60.4371 38.8333 58.3333 38.8333ZM29.1666 22.4167H31.1666H40.8333H42.8333V20.4167C42.8333 16.1038 39.3129 12.5833 35 12.5833C30.6871 12.5833 27.1666 16.1038 27.1666 20.4167H29.1375V22.4167H29.1666ZM37.9166 48.6667C39.9138 48.6667 41.6388 47.4664 42.4072 45.75H59.25V55.4167C59.25 57.5204 57.5204 59.25 55.4166 59.25H14.6125C12.5087 59.25 10.7791 57.5204 10.7791 55.4167V45.75H27.5928C28.3612 47.4664 30.0861 48.6667 32.0833 48.6667H37.9166Z" stroke="#00EAC7" stroke-width="4"/>
</svg>
