<svg width="70" height="70" viewBox="0 0 70 70" fill="none" xmlns="http://www.w3.org/2000/svg">
<path d="M21.875 10.2084C20.7147 10.2084 19.6019 10.6693 18.7814 11.4898C17.9609 12.3103 17.5 13.4231 17.5 14.5834C17.5 15.7437 17.9609 16.8565 18.7814 17.677C19.6019 18.4974 20.7147 18.9584 21.875 18.9584C23.0353 18.9584 24.1481 18.4974 24.9686 17.677C25.7891 16.8565 26.25 15.7437 26.25 14.5834C26.25 13.4231 25.7891 12.3103 24.9686 11.4898C24.1481 10.6693 23.0353 10.2084 21.875 10.2084ZM13.125 14.5834C13.125 12.2627 14.0469 10.0371 15.6878 8.39619C17.3288 6.75525 19.5543 5.83337 21.875 5.83337C24.1956 5.83337 26.4212 6.75525 28.0622 8.39619C29.7031 10.0371 30.625 12.2627 30.625 14.5834C30.625 16.904 29.7031 19.1296 28.0622 20.7706C26.4212 22.4115 24.1956 23.3334 21.875 23.3334C19.5543 23.3334 17.3288 22.4115 15.6878 20.7706C14.0469 19.1296 13.125 16.904 13.125 14.5834ZM10.99 26.25C8.13749 26.25 5.83333 28.5571 5.83333 31.4067V32.4567C5.83333 33.0605 5.83333 36.5634 7.87499 39.9671C9.47333 42.6213 12.1829 45.0042 16.5521 46.0717C17.151 44.4812 18.2345 43.1192 19.6496 42.178C14.9742 41.6792 12.7633 39.6025 11.6287 37.7155C10.2171 35.3646 10.2083 32.8621 10.2083 32.448V31.4067C10.2083 30.975 10.5583 30.625 10.99 30.625H23.4208C23.6155 29.0832 24.1163 27.5957 24.8937 26.25H10.99ZM45.1062 26.25C45.8675 27.5684 46.3808 29.0471 46.5762 30.625H59.01C59.4417 30.625 59.7917 30.975 59.7917 31.4067V32.448C59.7917 32.8621 59.7829 35.3646 58.3712 37.7125C57.2367 39.6025 55.0258 41.6792 50.3504 42.178C51.7504 43.1113 52.8471 44.4705 53.4479 46.0717C57.8171 45.0042 60.5267 42.6213 62.1221 39.9671C64.1667 36.5634 64.1667 33.0634 64.1667 32.4538V31.4038C64.1667 28.56 61.8596 26.25 59.01 26.25H45.1062ZM43.75 14.5834C43.75 13.4231 44.2109 12.3103 45.0314 11.4898C45.8519 10.6693 46.9647 10.2084 48.125 10.2084C49.2853 10.2084 50.3981 10.6693 51.2186 11.4898C52.0391 12.3103 52.5 13.4231 52.5 14.5834C52.5 15.7437 52.0391 16.8565 51.2186 17.677C50.3981 18.4974 49.2853 18.9584 48.125 18.9584C46.9647 18.9584 45.8519 18.4974 45.0314 17.677C44.2109 16.8565 43.75 15.7437 43.75 14.5834ZM48.125 5.83337C45.8043 5.83337 43.5788 6.75525 41.9378 8.39619C40.2969 10.0371 39.375 12.2627 39.375 14.5834C39.375 16.904 40.2969 19.1296 41.9378 20.7706C43.5788 22.4115 45.8043 23.3334 48.125 23.3334C50.4456 23.3334 52.6712 22.4115 54.3122 20.7706C55.9531 19.1296 56.875 16.904 56.875 14.5834C56.875 12.2627 55.9531 10.0371 54.3122 8.39619C52.6712 6.75525 50.4456 5.83337 48.125 5.83337ZM35 27.7084C34.4255 27.7084 33.8566 27.8215 33.3258 28.0414C32.795 28.2613 32.3127 28.5835 31.9064 28.9898C31.5001 29.396 31.1779 29.8783 30.958 30.4091C30.7382 30.9399 30.625 31.5088 30.625 32.0834C30.625 32.6579 30.7382 33.2268 30.958 33.7576C31.1779 34.2884 31.5001 34.7707 31.9064 35.177C32.3127 35.5832 32.795 35.9055 33.3258 36.1253C33.8566 36.3452 34.4255 36.4584 35 36.4584C36.1603 36.4584 37.2731 35.9974 38.0936 35.177C38.9141 34.3565 39.375 33.2437 39.375 32.0834C39.375 30.923 38.9141 29.8103 38.0936 28.9898C37.2731 28.1693 36.1603 27.7084 35 27.7084ZM26.25 32.0834C26.25 29.7627 27.1719 27.5371 28.8128 25.8962C30.4538 24.2552 32.6793 23.3334 35 23.3334C37.3206 23.3334 39.5462 24.2552 41.1872 25.8962C42.8281 27.5371 43.75 29.7627 43.75 32.0834C43.75 34.404 42.8281 36.6296 41.1872 38.2706C39.5462 39.9115 37.3206 40.8334 35 40.8334C32.6793 40.8334 30.4538 39.9115 28.8128 38.2706C27.1719 36.6296 26.25 34.404 26.25 32.0834ZM18.9583 48.9067C18.9583 46.0542 21.2654 43.75 24.115 43.75H45.885C48.7346 43.75 51.0417 46.0571 51.0417 48.9067V49.9567C51.0417 50.5605 51.0417 54.0634 49 57.4671C46.8329 61.0663 42.6212 64.1667 35 64.1667C27.3787 64.1667 23.1642 61.0663 21 57.4671C18.9583 54.0634 18.9583 50.5634 18.9583 49.9538V48.9067ZM24.115 48.125C23.9082 48.1266 23.7102 48.2094 23.564 48.3557C23.4177 48.5019 23.3349 48.6999 23.3333 48.9067V49.948C23.3333 50.3621 23.3421 52.8646 24.7537 55.2125C26.0546 57.3796 28.77 59.7917 35 59.7917C41.23 59.7917 43.9454 57.3796 45.2462 55.2125C46.6579 52.8646 46.6667 50.3621 46.6667 49.948V48.9067C46.6651 48.6999 46.5823 48.5019 46.436 48.3557C46.2898 48.2094 46.0918 48.1266 45.885 48.125H24.115Z" fill="#00EAC7"/>
</svg>
