<svg width="980" height="788" viewBox="0 0 980 788" fill="none" xmlns="http://www.w3.org/2000/svg">
<path d="M979.5 394C979.5 611.228 760.451 787.5 490 787.5C219.549 787.5 0.5 611.228 0.5 394C0.5 176.772 219.549 0.5 490 0.5C760.451 0.5 979.5 176.772 979.5 394Z" stroke="white" stroke-opacity="0.02"/>
<path d="M887.5 394C887.5 570.359 709.641 713.5 490 713.5C270.359 713.5 92.5 570.359 92.5 394C92.5 217.641 270.359 74.5 490 74.5C709.641 74.5 887.5 217.641 887.5 394Z" stroke="white" stroke-opacity="0.05"/>
<path d="M778.5 394C778.5 521.757 649.442 625.5 490 625.5C330.558 625.5 201.5 521.757 201.5 394C201.5 266.243 330.558 162.5 490 162.5C649.442 162.5 778.5 266.243 778.5 394Z" stroke="white" stroke-opacity="0.08"/>
<path d="M703.5 394C703.5 488.62 608.02 565.5 490 565.5C371.98 565.5 276.5 488.62 276.5 394C276.5 299.38 371.98 222.5 490 222.5C608.02 222.5 703.5 299.38 703.5 394Z" stroke="white" stroke-opacity="0.1"/>
<path d="M638.5 394C638.5 459.902 572.121 513.5 490 513.5C407.879 513.5 341.5 459.902 341.5 394C341.5 328.098 407.879 274.5 490 274.5C572.121 274.5 638.5 328.098 638.5 394Z" stroke="white" stroke-opacity="0.1"/>
<path d="M580.5 394C580.5 433.943 540.09 466.5 490 466.5C439.91 466.5 399.5 433.943 399.5 394C399.5 354.057 439.91 321.5 490 321.5C540.09 321.5 580.5 354.057 580.5 394Z" stroke="white" stroke-opacity="0.1"/>
<path d="M545.5 394C545.5 418.48 520.759 438.5 490 438.5C459.241 438.5 434.5 418.48 434.5 394C434.5 369.52 459.241 349.5 490 349.5C520.759 349.5 545.5 369.52 545.5 394Z" stroke="white" stroke-opacity="0.1"/>
</svg>
