<svg width="836" height="776" viewBox="0 0 836 776" fill="none" xmlns="http://www.w3.org/2000/svg">
<g filter="url(#filter0_f_169_427)">
<circle cx="381.181" cy="426.752" r="94.5995" fill="#00EAC7" fill-opacity="0.5"/>
</g>
<g filter="url(#filter1_f_169_427)">
<circle cx="525.059" cy="371.359" r="49.2781" fill="#00EAC7" fill-opacity="0.5"/>
</g>
<g filter="url(#filter2_f_169_427)">
<path d="M703.284 333.806L647.113 366.227L630.553 375.718L557.163 418.006L546.625 424.115L463.074 472.323L448.302 480.875L371.149 525.325L356.188 533.97L290.044 572.124C281.011 577.292 266.427 577.292 257.489 572.124L206.774 542.898C197.742 537.729 197.742 529.271 206.774 524.103L301.146 469.692L316.577 460.764L346.968 443.191L380.558 423.833L389.59 418.664L404.645 410.018L406.15 409.173L449.902 383.988L479.446 366.978L510.966 348.841L599.598 297.72L620.109 285.879C621.803 284.939 623.685 284.093 625.661 283.529C634.317 280.898 645.325 281.65 652.664 285.879L703.378 315.105C712.223 320.179 712.223 328.637 703.284 333.806Z" fill="#00EAC7" fill-opacity="0.4"/>
</g>
<path d="M617.8 360.8L572.8 387L570.3 388.5L542.4 404.8H542.3L531.6 411L501 428.9L499.7 429.6L449.1 459.2L445.9 461L380.6 499.1L380 499.5L316.3 536.6L261.3 503.8L334.5 461.5L336.6 460.2L365.8 443.3L368.4 441.8L387.7 430.7L394.1 427L394.3 426.9L405.7 420.3L407 419.5L435.6 403L437.3 402L477.6 378.7L480.6 377L537.2 344.3L538.1 343.8L564.2 328.7L617.8 360.8Z" fill="#111B24"/>
<g opacity="0.3">
<path d="M535.462 232.671C564.662 231.271 587.062 206.471 585.662 177.271C584.262 148.071 559.462 125.571 530.262 127.071C501.162 128.471 478.662 153.271 480.062 182.471C481.462 211.571 506.262 234.071 535.462 232.671Z" fill="url(#paint0_linear_169_427)" fill-opacity="0.9"/>
<path d="M529.262 194.471L527.062 203.571C515.562 199.971 508.662 187.971 511.462 176.071C511.562 175.571 511.662 175.171 511.862 174.771L504.762 173.071C505.362 170.571 506.862 168.571 508.862 167.371C510.662 166.271 512.962 165.671 515.262 166.171L534.562 170.671C533.962 173.171 532.462 175.071 530.562 176.371C528.562 177.571 526.062 178.071 523.662 177.471L521.062 176.871C520.962 177.271 520.762 177.771 520.662 178.171C518.862 185.171 522.662 192.071 529.262 194.471Z" fill="url(#paint1_linear_169_427)" fill-opacity="0.5"/>
<path d="M556.562 186.671C553.762 198.671 542.162 206.271 530.362 204.371L532.562 195.271C539.462 196.071 546.062 191.571 547.662 184.571C549.462 177.071 545.262 169.771 537.762 167.971C537.162 167.871 536.862 167.771 535.662 167.471L519.162 163.671C524.562 159.071 532.062 156.971 539.362 158.771C551.862 161.571 559.562 174.171 556.562 186.671Z" fill="url(#paint2_linear_169_427)" fill-opacity="0.5"/>
</g>
<g opacity="0.15">
<path d="M275.2 317.1C295.9 332.2 324.9 327.7 340 307C355.1 286.3 350.6 257.3 329.9 242.2C309.2 227.1 280.2 231.6 265.1 252.3C250 273 254.5 302 275.2 317.1Z" fill="url(#paint3_linear_169_427)" fill-opacity="0.9"/>
<path d="M292 287.7L285.5 292.7C279.7 283.9 281.6 271.9 290 265.4C290.3 265.1 290.6 264.9 291 264.7L287.1 259.6C288.8 258.2 291 257.7 293 258C294.9 258.2 296.7 259.1 298 260.7L308.7 274.4C307 275.8 304.8 276.3 302.8 276C300.8 275.8 298.8 274.7 297.5 273L296.1 271.2C295.8 271.4 295.4 271.7 295.1 271.9C290.1 275.6 288.9 282.4 292 287.7Z" fill="url(#paint4_linear_169_427)" fill-opacity="0.5"/>
<path d="M315 297.4C306.5 304 294.4 302.9 287.3 295L293.8 290C298.1 294.4 305.1 294.9 310 291C315.3 286.9 316.5 279.6 312.4 274.2C312.1 273.8 311.9 273.6 311.2 272.7L302.1 261C308.3 260.8 314.6 263.5 318.6 268.8C325.5 277.7 323.9 290.5 315 297.4Z" fill="url(#paint5_linear_169_427)" fill-opacity="0.5"/>
</g>
<g clip-path="url(#clip0_169_427)">
<path d="M617.6 361L572.6 387.2L570.1 388.7L542.2 405L531.5 411.2L500.9 429.1L499.6 429.8L448.9 459.4L445.7 461.2L380.5 499.3L379.8 499.7L316.1 536.8L261.1 504L334.3 461.7L336.4 460.4L365.7 443.5L368.2 442.1L387.5 430.9L393.9 427.2L394.1 427.1L405.5 420.5L406.8 419.8L435.4 403.2L437.2 402.2L477.4 378.9L480.4 377.2L537 344.5L537.9 344L564 328.9L617.6 361Z" fill="#111B24"/>
<mask id="mask0_169_427" style="mask-type:luminance" maskUnits="userSpaceOnUse" x="260" y="170" width="362" height="380">
<path d="M622 170.4H260.1V549.5H622V170.4Z" fill="white"/>
</mask>
<g mask="url(#mask0_169_427)">
<path d="M438.1 339.9C461.2 339.9 479.9 321.2 479.9 298.1C479.9 275 461.2 256.3 438.1 256.3C415 256.3 396.3 275 396.3 298.1C396.3 321.1 415 339.9 438.1 339.9Z" fill="url(#paint6_linear_169_427)" fill-opacity="0.9"/>
<path d="M443.3 308.8L446.6 315.4C437.8 319 427.6 315.3 423.2 306.6C423.1 306.3 422.9 305.9 422.7 305.6L417.6 308.2C416.7 306.4 416.6 304.4 417.2 302.7C417.7 301.1 418.8 299.6 420.4 298.7L434.4 291.7C435.3 293.5 435.4 295.5 434.8 297.2C434.3 299 432.9 300.5 431.2 301.4L429.3 302.4C429.4 302.7 429.6 303.1 429.7 303.4C432.3 308.3 438.1 310.7 443.3 308.8Z" fill="url(#paint7_linear_169_427)" fill-opacity="0.5"/>
<path d="M456 290.3C460.3 299 457.2 309.5 449 314.3L445.7 307.7C450.3 304.7 452 298.6 449.5 293.6C446.8 288.1 440.5 285.9 435.1 288.5C434.7 288.7 434.4 288.8 433.6 289.3L421.7 295.3C422.7 289.8 426.2 284.8 431.6 282.1C440.4 277.4 451.4 281.1 456 290.3Z" fill="url(#paint8_linear_169_427)" fill-opacity="0.5"/>
<g filter="url(#filter3_i_169_427)">
<path d="M449.1 459.3L436.8 466.4L372.5 503.5C347.7 500.2 325.6 484.1 315.4 460.2C314.9 459.2 314.5 458.1 314.1 457C313.5 455.4 312.9 453.6 312.4 451.9C301.1 413.5 323.2 373.2 361.6 361.9C390.3 353.5 420.1 363.7 437.9 385.4C438.8 386.4 439.6 387.5 440.4 388.6C445.3 395.2 449 402.8 451.5 411.1C456.5 427.8 455.3 444.6 449.1 459.3Z" fill="url(#paint9_linear_169_427)"/>
</g>
<path d="M382 452.4L382.1 465.3C365.6 464.2 352.6 450.5 352.5 433.6C352.5 433 352.5 432.3 352.6 431.7L342.6 431.8C342.6 428.4 343.9 425.2 346.2 422.9C348.3 420.8 351.1 419.4 354.3 419.2L381.5 419C381.5 422.4 380.2 425.6 377.9 427.9C375.6 430.2 372.6 431.6 369.1 431.7H365.4C365.3 432.3 365.3 433 365.3 433.6C365.2 443.2 372.6 451.3 382 452.4Z" fill="url(#paint10_linear_169_427)"/>
<path d="M416 433.2C416.1 450 403.1 464 386.7 465.2L386.6 452.3C396.1 451.1 403.4 443 403.3 433.2C403.2 422.6 395.2 414.2 384.7 414.3C383.9 414.3 383.4 414.3 381.7 414.3L358.6 414.5C364.3 406.7 373.6 401.5 384.1 401.4C401.6 401.3 415.8 415.5 416 433.2Z" fill="url(#paint11_linear_169_427)"/>
<g filter="url(#filter4_i_169_427)">
<path d="M566.5 390.8L556.2 396.8L510.4 423.6L503.7 427.4C495.1 423 488.3 415.8 484.3 406.4C483.6 404.8 483 403.2 482.5 401.5C480.6 394.9 480.3 388.2 481.4 381.8C481.5 381.4 481.6 380.9 481.6 380.5C484.8 365.6 495.8 352.9 511.5 348.3C520.1 345.8 528.8 346.1 536.7 348.7C537.1 348.8 537.5 349 537.9 349.1C545.9 352 552.9 357.2 558 364.1C560.9 368 563.1 372.5 564.6 377.4C566.2 382.2 566.7 386.2 566.5 390.8Z" fill="url(#paint12_linear_169_427)"/>
</g>
<path d="M521.4 401.9L520 409.3C510.6 406.8 504.6 397.4 506.4 387.5C506.5 387.1 506.6 386.7 506.6 386.4L500.8 385.3C501.2 383.3 502.3 381.6 503.9 380.6C505.4 379.6 507.1 379.1 509 379.4L524.8 382.4C524.4 384.4 523.3 386.1 521.7 387.1C520.1 388.2 518.2 388.6 516.1 388.3L514 387.9C513.9 388.3 513.8 388.6 513.8 389C512.7 394.7 516.1 400.2 521.4 401.9Z" fill="url(#paint13_linear_169_427)"/>
<path d="M543.3 394.6C541.4 404.4 532.4 411 522.7 409.8L524.1 402.4C529.7 402.8 534.9 398.9 536 393.2C537.2 387.1 533.5 381.3 527.4 380.2C526.9 380.1 526.6 380 525.7 379.8L512.2 377.2C516.4 373.3 522.4 371.4 528.5 372.5C538.5 374.5 545.2 384.4 543.3 394.6Z" fill="url(#paint14_linear_169_427)"/>
</g>
<path d="M122 184.1L261.1 504L316.1 536.9L617.6 361L675.9 156L122 184.1Z" fill="url(#paint15_linear_169_427)" fill-opacity="0.4"/>
</g>
<defs>
<filter id="filter0_f_169_427" x="86.5817" y="132.152" width="589.199" height="589.199" filterUnits="userSpaceOnUse" color-interpolation-filters="sRGB">
<feFlood flood-opacity="0" result="BackgroundImageFix"/>
<feBlend mode="normal" in="SourceGraphic" in2="BackgroundImageFix" result="shape"/>
<feGaussianBlur stdDeviation="100" result="effect1_foregroundBlur_169_427"/>
</filter>
<filter id="filter1_f_169_427" x="275.781" y="122.081" width="498.556" height="498.556" filterUnits="userSpaceOnUse" color-interpolation-filters="sRGB">
<feFlood flood-opacity="0" result="BackgroundImageFix"/>
<feBlend mode="normal" in="SourceGraphic" in2="BackgroundImageFix" result="shape"/>
<feGaussianBlur stdDeviation="100" result="effect1_foregroundBlur_169_427"/>
</filter>
<filter id="filter2_f_169_427" x="0" y="82" width="910" height="694" filterUnits="userSpaceOnUse" color-interpolation-filters="sRGB">
<feFlood flood-opacity="0" result="BackgroundImageFix"/>
<feBlend mode="normal" in="SourceGraphic" in2="BackgroundImageFix" result="shape"/>
<feGaussianBlur stdDeviation="100" result="effect1_foregroundBlur_169_427"/>
</filter>
<filter id="filter3_i_169_427" x="309.444" y="358.967" width="162.164" height="161.533" filterUnits="userSpaceOnUse" color-interpolation-filters="sRGB">
<feFlood flood-opacity="0" result="BackgroundImageFix"/>
<feBlend mode="normal" in="SourceGraphic" in2="BackgroundImageFix" result="shape"/>
<feColorMatrix in="SourceAlpha" type="matrix" values="0 0 0 0 0 0 0 0 0 0 0 0 0 0 0 0 0 0 127 0" result="hardAlpha"/>
<feOffset dx="17" dy="17"/>
<feGaussianBlur stdDeviation="18"/>
<feComposite in2="hardAlpha" operator="arithmetic" k2="-1" k3="1"/>
<feColorMatrix type="matrix" values="0 0 0 0 1 0 0 0 0 1 0 0 0 0 1 0 0 0 0.2 0"/>
<feBlend mode="normal" in2="shape" result="effect1_innerShadow_169_427"/>
</filter>
<filter id="filter4_i_169_427" x="480.763" y="346.579" width="102.778" height="97.8215" filterUnits="userSpaceOnUse" color-interpolation-filters="sRGB">
<feFlood flood-opacity="0" result="BackgroundImageFix"/>
<feBlend mode="normal" in="SourceGraphic" in2="BackgroundImageFix" result="shape"/>
<feColorMatrix in="SourceAlpha" type="matrix" values="0 0 0 0 0 0 0 0 0 0 0 0 0 0 0 0 0 0 127 0" result="hardAlpha"/>
<feOffset dx="17" dy="17"/>
<feGaussianBlur stdDeviation="18"/>
<feComposite in2="hardAlpha" operator="arithmetic" k2="-1" k3="1"/>
<feColorMatrix type="matrix" values="0 0 0 0 1 0 0 0 0 1 0 0 0 0 1 0 0 0 0.2 0"/>
<feBlend mode="normal" in2="shape" result="effect1_innerShadow_169_427"/>
</filter>
<linearGradient id="paint0_linear_169_427" x1="505.478" y1="128.271" x2="560.224" y2="231.448" gradientUnits="userSpaceOnUse">
<stop stop-color="#00EAC7" stop-opacity="0.2"/>
<stop offset="1" stop-color="#111C25" stop-opacity="0.4"/>
</linearGradient>
<linearGradient id="paint1_linear_169_427" x1="517.619" y1="165.552" x2="527.991" y2="198.572" gradientUnits="userSpaceOnUse">
<stop stop-color="#00EAC7"/>
<stop offset="1" stop-color="#008470"/>
</linearGradient>
<linearGradient id="paint2_linear_169_427" x1="534.006" y1="157.362" x2="547.42" y2="203.811" gradientUnits="userSpaceOnUse">
<stop stop-color="#00EAC7"/>
<stop offset="1" stop-color="#008470"/>
</linearGradient>
<linearGradient id="paint3_linear_169_427" x1="312.312" y1="229.396" x2="292.741" y2="329.951" gradientUnits="userSpaceOnUse">
<stop stop-color="#00EAC7" stop-opacity="0.2"/>
<stop offset="1" stop-color="#111C25" stop-opacity="0.4"/>
</linearGradient>
<linearGradient id="paint4_linear_169_427" x1="300.029" y1="261.515" x2="288.891" y2="289.754" gradientUnits="userSpaceOnUse">
<stop stop-color="#00EAC7"/>
<stop offset="1" stop-color="#008470"/>
</linearGradient>
<linearGradient id="paint5_linear_169_427" x1="315.722" y1="264.968" x2="299.252" y2="304.041" gradientUnits="userSpaceOnUse">
<stop stop-color="#00EAC7"/>
<stop offset="1" stop-color="#008470"/>
</linearGradient>
<linearGradient id="paint6_linear_169_427" x1="395.386" y1="280.553" x2="480.814" y2="315.6" gradientUnits="userSpaceOnUse">
<stop stop-color="#00EAC7" stop-opacity="0.2"/>
<stop offset="1" stop-color="#111C25" stop-opacity="0.4"/>
</linearGradient>
<linearGradient id="paint7_linear_169_427" x1="421.545" y1="297.157" x2="444.538" y2="311.985" gradientUnits="userSpaceOnUse">
<stop stop-color="#00EAC7"/>
<stop offset="1" stop-color="#008470"/>
</linearGradient>
<linearGradient id="paint8_linear_169_427" x1="427.377" y1="283.821" x2="459.006" y2="305.273" gradientUnits="userSpaceOnUse">
<stop stop-color="#00EAC7"/>
<stop offset="1" stop-color="#008470"/>
</linearGradient>
<linearGradient id="paint9_linear_169_427" x1="307.711" y1="349.898" x2="443.542" y2="499.112" gradientUnits="userSpaceOnUse">
<stop stop-color="#00EAC7"/>
<stop offset="1" stop-color="#111C25"/>
</linearGradient>
<linearGradient id="paint10_linear_169_427" x1="357.194" y1="417.486" x2="381.596" y2="458.183" gradientUnits="userSpaceOnUse">
<stop stop-color="#00EAC7"/>
<stop offset="1" stop-color="#008470"/>
</linearGradient>
<linearGradient id="paint11_linear_169_427" x1="376.47" y1="401.288" x2="409.228" y2="458.909" gradientUnits="userSpaceOnUse">
<stop stop-color="#00EAC7"/>
<stop offset="1" stop-color="#008470"/>
</linearGradient>
<linearGradient id="paint12_linear_169_427" x1="481.406" y1="343.109" x2="552.763" y2="421.496" gradientUnits="userSpaceOnUse">
<stop stop-color="#00EAC7"/>
<stop offset="1" stop-color="#111C25"/>
</linearGradient>
<linearGradient id="paint13_linear_169_427" x1="511.054" y1="378.85" x2="520.58" y2="405.213" gradientUnits="userSpaceOnUse">
<stop stop-color="#00EAC7"/>
<stop offset="1" stop-color="#008470"/>
</linearGradient>
<linearGradient id="paint14_linear_169_427" x1="523.983" y1="371.678" x2="536.432" y2="408.801" gradientUnits="userSpaceOnUse">
<stop stop-color="#00EAC7"/>
<stop offset="1" stop-color="#008470"/>
</linearGradient>
<linearGradient id="paint15_linear_169_427" x1="399" y1="221.5" x2="399" y2="537" gradientUnits="userSpaceOnUse">
<stop stop-color="#00EAC7" stop-opacity="0"/>
<stop offset="1" stop-color="#00EAC7"/>
</linearGradient>
<clipPath id="clip0_169_427">
<rect width="553.9" height="393.5" fill="white" transform="translate(122 156)"/>
</clipPath>
</defs>
</svg>
