<?xml version="1.0" encoding="UTF-8"?>
<svg id="Layer_1" data-name="Layer 1" xmlns="http://www.w3.org/2000/svg" viewBox="0 0 154 48">
  <defs>
    <style>
      .cls-1 {
        fill: #afadad;
      }
    </style>
  </defs>
  <path class="cls-1" d="M45.27,12.26c.22.23.22.68.25.99.11,1.29.13,3.85,0,5.13-.03.32.03.63-.28.85l-29.72,13.44c-.07.33.01.54.27.75.23.2,3.7,1.83,3.52,2.07l-5.82,2.61-4.53-2.23c-.25-.41-.02-6.58.22-6.84l29.11-13.15c.32-.2.53-.49.3-.85-.26-.41-3.08-1.71-3.71-2.08-.21-.27,5.44-2.77,5.98-2.85l4.41,2.15Z"/>
  <path class="cls-1" d="M79.59,16c.46.13,2.75,4.14,3.42,4.73.19.16.28.25.56.2.3-.05,3.23-4.93,3.61-4.93h3.89l-5.51,7.87,5.42,7.86c.19.1-.17.38-.19.38h-3.61c-.29,0-2.7-4.08-3.32-4.64-.15-.14-.23-.29-.48-.29-.68,0-3.09,4.39-3.99,4.93h-13.2v-16.1h13.39ZM75.13,31.91l.66-.2,5.05-7.08c.24-.37.27-.85.07-1.24l-5.02-6.92-.76-.28v2.65h-5.51v3.41h4.37v3.03h-4.37v3.79h5.51v2.84Z"/>
  <path class="cls-1" d="M113.41,21.37c.45.47.9,1.16,1.18,1.76.21.44.52,1.9.6,1.96.05.04.41-.03.57,0,.43-6.63,10.53-7.75,12.76-1.64,2.39,6.58-5.56,11.27-10.67,7.04-1.42-1.18-1.72-2.43-2.37-4.07-.7.87-.76,1.92-1.46,2.9-4.34,6.09-14.65,1.31-11.71-6,1.72-4.29,7.98-5.2,11.11-1.95ZM107.54,22.3c-3.77.71-3.58,6.97.9,6.98,5.33.01,4.69-8.03-.9-6.98ZM125.19,23.44c-1.51-1.76-5.13-1.62-6.16.65-1.8,4.01,3.05,6.78,5.88,4.22,1.16-1.05,1.26-3.71.27-4.87Z"/>
  <path class="cls-1" d="M51.01,16h6.93c2.58,0,5.73,3.14,6.42,5.53,1.94,6.75-3.17,10.29-9.26,10.58-.88.04-2.85.13-3.62,0-.16-.03-.47-.15-.47-.28v-15.81ZM54.62,29.07c3.23.35,6.15-.9,6.46-4.44.38-4.28-2.53-5.96-6.46-5.78v10.23Z"/>
  <path class="cls-1" d="M8.86,12.69c.07-.41,1.56-1.12,2.04-1.37,1-.53,2.1-.92,3.08-1.48l.51.06c3,1.59,6.13,2.96,9.12,4.56.64.34,1.77.9,2.29,1.31.15.12.35,0,.24.43l-5.22,2.26-5.84-3.06-.9-.15v6.15l-4.87,2.34c-.15.1-.44-.22-.44-.26v-10.79Z"/>
  <path class="cls-1" d="M45.5,24.33l-.04,11.23-.26.31c-1.45.51-3.21,2.01-4.63,2.4-.27.07-.5.14-.77,0l-11.39-6.08c-.09-.38.15-.26.38-.37.94-.42,4.27-2.08,5.01-2,.83.33,6.06,3.3,6.38,3.03l.41-6.41,4.91-2.11Z"/>
  <path class="cls-1" d="M137.12,29.26c.19-.06.23-.57.39-.58.42-.03,3.83,2.18,4.41.26.68-2.25-2.53-2.07-3.94-3-1.65-1.09-1.46-3.9-.17-5.26,1.85-1.94,4.39-1.22,6.61-.5.15.17-.75,2.07-.94,2.19-.16.1-2.69-1.27-3.43-.03-1.09,1.81,1.89,1.98,2.99,2.53,3.81,1.93,2.01,6.78-1.76,7.21-1.69.19-3.01-.36-4.53-.93-.21.03-.05.57-.1.57h-6.84v-11.84s.26-.28.28-.28h2.75v9.66c1.04-.21,3.43.28,4.27,0Z"/>
  <path class="cls-1" d="M100.76,16l1.71,3.03h-3.61v12.78s-.26.28-.28.28h-3.51v-13.07h-3.42v-3.03h9.11Z"/>
  <path class="cls-1" d="M27.18,3.01l9.02,4.76-5.79,2.73c-1.01-.11-2.12-1.28-3.04-1.32-1.08-.05-2.71,1.36-3.33,1.25-.37-.07-4.68-2.26-5.18-2.59-.12-.08-.4-.21-.22-.35l8.55-4.47Z"/>
  <path class="cls-1" d="M36.39,40.43c-.23.34-.83.6-1.2.79-2.64,1.3-5.31,2.57-8.01,3.78l-8.83-4.47,5.63-2.51c.97.23,2.22,1.25,3.2,1.3,1.24.06,2.84-1.34,3.79-1.35,1.29-.01,3.95,2.23,5.41,2.47Z"/>
</svg>