<?xml version="1.0" encoding="UTF-8"?>
<svg id="Layer_1" data-name="Layer 1" xmlns="http://www.w3.org/2000/svg" viewBox="0 0 154 48">
  <defs>
    <style>
      .cls-1 {
        fill: #afadad;
      }
    </style>
  </defs>
  <path class="cls-1" d="M18.21,19.2v3.12h4.58s.17.15.19.19c.08.17.09,2.06.05,2.31-.02.1-.16.33-.23.33h-4.58v3.21h5.25c.21,0,.44.4.43.62,0,.18-.35.75-.46.96-2.42,4.63-5.36,9.1-7.79,13.75-.27.65-.94.91-1.48.38L3.61,25.34c-.23-.28.12-1.14.38-1.14h9.12v1.46s-.13.14-.14.14h-7.23l8.98,16.14.21-.12c1.68-3.16,3.57-6.21,5.29-9.35.12-.22.57-.95.6-1.1.02-.1-.07-.19-.1-.19h-5.86s-.14-.13-.14-.14v-14.54s.3-.24.33-.24h5.62l-6-10.38L5.49,22.03c-.08.06.09.19.1.19h7.42c.08,0,.27,1.42-.24,1.42H4.46c-1.65-.37-.66-1.5-.16-2.42,2.95-5.43,6.15-11.26,9.36-16.52.4-.66.75-1.51,1.61-.73l8.13,14.06c.31.33-.02,1.17-.42,1.17h-4.77Z"/>
  <path class="cls-1" d="M37.22,15.52v6.23c1.24-1.31,2.6-1.76,4.37-1.29,1.39.37,2.44,1.66,2.44,3.13v7.6c-.9.08-2.19.21-3.08.1-.15-.02-.3-.04-.37-.19-.12-.24-.06-2.17-.05-2.6.02-1.23.36-3.57-.14-4.67-.55-1.2-2.19-1-2.83,0-.06.09-.34.75-.34.8v6.56c-1.12.15-2.38.15-3.5,0v-15.67h3.5Z"/>
  <path class="cls-1" d="M79.85,31.19h-3.07c-.28,0-.89-2.45-1.18-2.79-.52-.01-4.14-.16-4.27.01-.21.37-.87,2.77-1.17,2.77h-2.93s-.16-.16-.15-.24l4.52-12.48c.15-.28.78-.29,1.1-.31.47-.03,1.14-.03,1.61,0,.27.02.95.08,1.08.24l4.45,12.78ZM72,25.91h2.79s.18-.13.1-.2l-1.43-4.34-1.46,4.53Z"/>
  <path class="cls-1" d="M49.32,26.94c.01,2.3,2.68,2.27,4.35,1.84.31-.08,1.15-.49,1.29-.51.08,0,.22.07.22.13v2.08c0,.62-2.4.97-2.88,1-4.82.27-7.23-2.42-6.26-7.2.67-3.34,4.57-4.89,7.57-3.55,2,.89,2.9,3.86,2.52,5.88-.02.1-.16.33-.23.33h-6.57ZM49.41,24.77h3.26c.57,0,0-1.26-.23-1.53-1.13-1.31-3.34-.16-3.03,1.53Z"/>
  <path class="cls-1" d="M102.44,22.88c.56-.48.95-.97,1.7-1.18,1.57-.44,3.53.16,4.02,1.84.08.29.24,1.01.24,1.27v6.23s-.13.14-.14.14h-2.88v-5.99s-.16-.49-.2-.55c-.47-.82-1.63-.85-2.26-.2-.11.12-.47.73-.47.85v5.76s-.13.14-.14.14h-2.88l.05-13.78h2.84s.14.13.14.14v5.33Z"/>
  <path class="cls-1" d="M143.52,21.85l1.89,6.14,2.08-6.14h2.98l-3.92,10.48c-1.09,2.42-2.5,3.56-5.29,3.11-.19-.03-.53-.23-.53-.42v-1.98c0-.29,1.18.16,1.45.14.98-.07,1.69-1.32,1.67-2.21l-3.6-9.11h3.26Z"/>
  <path class="cls-1" d="M114.34,21.59c3.92-.3,6.38,2.2,5.68,6.14-.56,3.14-3.44,3.95-6.27,3.64-5.08-.56-5.48-9.31.59-9.78ZM114.81,23.85c-2.49.36-2.42,5.57.45,5.27,2.54-.27,2.26-5.66-.45-5.27Z"/>
  <path class="cls-1" d="M84.01,21.85v6.09c0,.81,1,1.27,1.73,1.16,1.64-.26,1.16-2.23,1.2-3.43,0-.22.1-.43.1-.65.03-1.05-.03-2.11,0-3.17h3.03v9.2s-.13.14-.14.14h-2.88c.07-1.57-.24-.69-.95-.24-1.88,1.17-4.57.45-4.99-1.89-.28-1.55-.39-5.34-.21-6.88.01-.1.04-.33.15-.33h2.98Z"/>
  <path class="cls-1" d="M29.84,23.07c-.16.1-.13,3.37-.1,3.83.12,1.75.62,2.13,2.37,1.65v2.5c-.8.31-1.9.49-2.78.41-4.18-.35-2.66-5.42-2.99-8.16-.01-.1-.04-.33-.15-.33h-1.47c-.09-.45-.22-1.97,0-2.3.18-.28,1.28-.11,1.61-.16v-1.94c0-.31.55-.46.78-.54.38-.14,2.21-.71,2.47-.62.05.02.16.09.16.13v2.83s.13.14.14.14h2.08c.07,0,.13.16.14.24.04.23.02,2.01-.05,2.12-.03.04-.26.19-.28.19h-1.94Z"/>
  <path class="cls-1" d="M140.07,21.85v2.03s-.13.14-.14.14h-1.8s-.14.13-.14.14v3.68c0,.35.29.99.64,1.16.58.28.88-.05,1.44-.07v2.27c-1.77.5-4.23.63-4.87-1.51-.07-.22-.24-.91-.24-1.09v-4.58h-1.37c-.21,0-.2-1.92-.06-2.12.13-.18,1.23.09,1.39-.14.19-.27-.13-1.5.13-1.85.13-.17,2.47-.92,2.7-.89.08,0,.24.08.24.14v2.55s.13.14.14.14h1.94Z"/>
  <path class="cls-1" d="M95.92,21.85h1.94s.14.13.14.14v1.79s-.13.14-.09.24h-1.84s-.14.13-.14.14v3.96c0,.05.19.54.24.61.42.6,1.27.26,1.84.19v2.12c0,.2-1.24.41-1.47.42-1.29.1-2.72-.12-3.31-1.41-.08-.17-.33-.95-.33-1.09v-4.96h-1.37c-.07,0-.13-.16-.14-.24-.04-.19-.03-1.64.01-1.78.12-.36,1.28.01,1.46-.24.16-.45-.12-1.51.13-1.85.15-.21,2.54-.94,2.75-.85.04.02.19.18.19.19v2.6Z"/>
  <path class="cls-1" d="M64.91,23.45c-1.25-.25-2.57-.48-3.23.88-.36.73-.42,1.93-.45,2.76-.06,1.36.05,2.74,0,4.11h-3.4v-10.43s.15-.17.19-.19c.16-.08,2.82-.1,3.05-.03.49.14.12,1.39.3,1.4.37-.85,1.14-1.51,2.08-1.6.25-.03,1.46-.08,1.46.23v2.88Z"/>
  <path class="cls-1" d="M124.71,21.85c.24.08.11.81.14,1.04l.93-.82c.35-.34,2.19-.54,2.19.01v2.5c-1.04-.21-2.25-.52-2.82.63-.08.17-.3.79-.3.93v5.05h-3.03v-9.35c.71.14,2.28-.18,2.88,0Z"/>
  <path class="cls-1" d="M129.24,21.85h2.74s.14.13.14.14v9.06s-.13.14-.14.14h-2.74s-.14-.13-.14-.14v-9.06s.11-.09.14-.14Z"/>
  <path class="cls-1" d="M130.12,17.43c1.17-.24,2.31.47,2.2,1.73-.16,1.96-3.66,1.74-3.41-.48.06-.57.66-1.14,1.2-1.25Z"/>
</svg>