<?xml version="1.0" encoding="UTF-8"?>
<svg id="Layer_1" data-name="Layer 1" xmlns="http://www.w3.org/2000/svg" viewBox="0 0 154 48">
  <defs>
    <style>
      .cls-1 {
        font-family: MyriadPro-Regular, 'Myriad Pro';
        font-size: 22.9px;
        letter-spacing: .18em;
      }

      .cls-1, .cls-2 {
        fill: #afadad;
      }
    </style>
  </defs>
  <path class="cls-2" d="M39.35,22.5C36.45.86,7.2.42,3.15,21.81c-1.32,24.08,32.29,28.01,36.2,4.1h0v-3.42ZM24.01,40.17c-.67.05.3-.97.34-1.07,2.21-7.46-10.01-5.55-5.49.87-5.65-2.29-1.94-11.39,4-9.35,4.41,1.26,4.78,7.18,1.15,9.55ZM25.93,39.56c4.74-5.68-2.22-13.71-8.38-9.29-3.05,2.2-3.03,6.47-.91,9.29-5.42-3.01-4.87-12.08.91-14.55,9.66-4.47,17.09,8.71,8.39,14.55ZM28.35,38.55c-.23-.2,1.06-1.18,1.05-1.48,4.91-8.34-3.73-17.67-12.36-13.57-5.06,2.41-6.81,8.97-3.81,13.7.16.25,1.2,1.14.98,1.35-.28.25-.59-.16-.78-.33-9.35-8.8-1.04-23.81,11.28-20.37,7.58,2.12,10.69,11.09,6.62,17.73-.26.43-2.54,3.37-2.99,2.97ZM33.5,35.53c-.21.25-1.9,2.03-2.12,1.81-.14-.14,1.19-1.65,1.37-1.96,5.56-9.07-1.67-20.89-12.18-20.26-11.32.69-16.36,13.93-9.4,22.42C1.48,29.74,4,14.15,15.78,9.92c15.54-5.58,28.51,13.07,17.73,25.6Z"/>
  <text class="cls-1" transform="translate(44.83 34.71)"><tspan x="0" y="0">MESSIER</tspan></text>
</svg>