<?xml version="1.0" encoding="UTF-8"?>
<svg id="Layer_1" data-name="Layer 1" xmlns="http://www.w3.org/2000/svg" viewBox="0 0 154 48">
  <defs>
    <style>
      .cls-1 {
        fill: #afadad;
      }
    </style>
  </defs>
  <path class="cls-1" d="M6.35,10.14c.51-.53,2.79-1.72,3.57-2.09,7.22-3.39,15.7-3.24,22.62.82,1.08.63,2.67,1.45,2.6,2.9-.09,1.89-6.05,8.3-7.84,8.78-3.29.87-5.15-3.11-7.4-4.85-1.61-1.25-3.03-.86-2.92,1.28l17.81,17.97c1.72,2.72-3.85,4.97-5.83,5.69-6.1,2.23-17.54,2.02-22.37-2.93-1.89-1.94.44-4.36,1.85-6s4.52-4.94,6.92-4.59c2.08.3,4.38,4.92,6.59,5.65,1.58.52,2.58-1.3,1.52-2.44L6.17,13.05c-.57-.84-.54-2.15.18-2.9Z"/>
  <path class="cls-1" d="M89.25,20.89c3.96-3.67,10.1-2.17,12.22,2.68,3.5,8.02-5.07,16.19-12.21,10.22-.06.21.08,1.61,0,1.61h-4.16V12.6c0-.06,1.04-.25,1.26-.24,1,.04,2.9,1.19,2.9,2.2v6.33ZM96.57,23.97c-.71-.65-2.07-1.04-3.04-1.02-5.96.11-5.44,9.54.86,8.71,3.58-.47,4.74-5.34,2.18-7.69Z"/>
  <path class="cls-1" d="M60.29,14.74c1.4,1.72.62,4.68-1.46,5.43-.38.14-.71-1.09-1.02-1.47-1.33-1.68-5.09-2.77-6.06-.52-1.29,2.99,5.48,4.45,7.38,5.65,5.78,3.66,3.15,11.2-3.35,11.96-2.41.28-6.63-.55-8.26-2.46-1.24-1.45-1.15-3.96.36-5.18,1.85-1.48,1.51.69,2.78,1.82,1.82,1.62,7.26,2.28,6.94-1.14-.19-1.99-5.05-3.13-6.65-3.98-8.45-4.52-2.44-15.06,6.69-11.74.67.24,2.22,1.11,2.64,1.63Z"/>
  <path class="cls-1" d="M77.23,35.4c-.08-.08.06-1.3,0-1.61-7.45,6.3-16.33-3.14-11.83-10.98,2.42-4.22,8.2-5.37,11.83-1.91.07-1.55,1.84-2.74,3.34-2.52.27.04,1.06.37,1.06.57v16.12s-.32.35-.35.35c-.59,0-3.9.14-4.04,0ZM72.09,23.02c-5.04.66-4.62,9.22,1.3,8.67,5.52-.52,5.01-9.5-1.3-8.67Z"/>
  <path class="cls-1" d="M124.38,29.18c.91,2.71,4.32,3.35,6.68,2.16.5-.25,1.04-1.06,1.28-1.02.17.03,2.7,1.45,2.98,1.66.19.14.44.21.37.53-.14.64-2.8,2.43-3.53,2.71-7.24,2.74-14.45-3.32-11.88-10.92s14.48-7.2,16.06,1.15c.1.54.37,3.74-.29,3.74h-11.67ZM132.24,25.73c-1.07-3.94-7.01-4.06-7.86,0h7.86Z"/>
  <path class="cls-1" d="M104.97,12.6c1.17-.26,2.63-.08,3.47.87.19.21.92,1.6.92,1.78v20.15h-4.39V12.6Z"/>
  <path class="cls-1" d="M148.19,19.05v4.61c-1.42-.05-3.02.34-3.93,1.5-.13.16-.69,1.08-.69,1.15v9.1h-4.39v-13.01c0-.11.97-1.65,1.16-1.84.76-.79,2.13-1.36,3.23-1.27.18.17-.32,1.92.23,2.07.64-1.72,2.68-2.38,4.39-2.3Z"/>
  <path class="cls-1" d="M117.22,19.28v16.12h-4.39v-13.93c0-1.42,3.04-3.03,4.39-2.19Z"/>
  <path class="cls-1" d="M114.14,12.65c3.85-.88,4.55,4.24,1.75,4.96-3.9,1-4.7-4.28-1.75-4.96Z"/>
</svg>