<?xml version="1.0" encoding="UTF-8"?>
<svg id="Layer_1" data-name="Layer 1" xmlns="http://www.w3.org/2000/svg" viewBox="0 0 154 48">
  <defs>
    <style>
      .cls-1 {
        fill: #afadad;
      }

      .cls-2 {
        fill: none;
        isolation: isolate;
        opacity: .5;
      }
    </style>
  </defs>
  <rect class="cls-2" y=".91" width="154" height="46.2"/>
  <g>
    <path class="cls-1" d="M51.39,16.21c.18-.5.61-.9.8-1.39.25-.65.04-.74-.46-1.08-1.62-1.11-3.86-1.53-5.79-1.25-.13-.12,1.16-1.4.89-2.05-.14-.33-1.85-.97-2.25-1.09-1.62-.5-3.24-.54-4.79.23l-.27-3.26c-.05-.26-.14-.42-.43-.33l-3.91,2.89-1.1-1.96c-.2-.14-.35-.08-.48.1-.47.66-.81,1.64-1.28,2.34-1.43.48-2.68,1.28-3.72,2.36l-12.4-4.86c-.34-.15-.59.21-.28.45l10.22,7.37c-2.04,3.42-4.3,6.72-6.39,10.11-.81,1.31-1.77,2.61-.52,4.07,2.26,2.64,7.19,1.17,10.06.4,2.08-.55,6.32-1.58,7.45-3.51.67-1.14.56-3.01.19-4.23-.09-.31-.59-1.09-.02-1.16.22-.03.86.34,1.08.47.1.06.64.37.66.43,1.16,3.46,2.51,6.86,3.7,10.32l-6.94,9.13c-2.72,3.14-7.26,3.13-9.98,0-.91-1.05-1.8-2.36-2.67-3.48-5.69-7.38-11.3-14.84-16.99-22.22-2.84-4.18-.16-9.65,4.79-10.12h39.51c4.05.2,6.87,3.97,5.99,7.93-.28,1.26-1,2.32-1.83,3.28-.92-.54-1.91-.15-2.83.12Z"/>
    <polygon class="cls-1" points="92.54 8.55 102.34 20.17 102.61 20.41 102.55 8.55 106.93 8.55 106.87 27.1 103.18 27.1 93.38 15.43 93.11 15.18 93.11 27.1 88.79 27.1 88.79 8.55 92.54 8.55"/>
    <path class="cls-1" d="M71.04,8.55c-.01,2.69.02,5.38,0,8.06-.01,2.33-.62,5.96,2.38,6.73,2.67.68,4.67-.87,4.69-3.6v-11.19s4.32,0,4.32,0v11.14c.09,4.12-2.52,7.54-6.77,7.79-2.4.14-4.69-.09-6.53-1.73-2.76-2.45-2.42-5.77-2.46-9.14-.03-2.69.03-5.38,0-8.06h4.37Z"/>
    <polygon class="cls-1" points="137.01 8.55 139.96 13.64 140.09 13.73 143.11 8.55 148.27 8.55 142.55 17.26 149.29 27.1 144.19 27.1 140.09 20.74 139.96 20.83 135.93 27.1 130.78 27.1 137.57 17.25 131.86 8.55 137.01 8.55"/>
    <path class="cls-1" d="M126.68,14.11c-.06.07-.5-.42-.57-.48-1.21-1.02-2.61-1.54-4.21-1.46-6.07.32-7.04,9.43-1.21,11.08,2.27.64,4.27-.08,5.94-1.64v4.88c-2.14,1.25-5.1,1.25-7.45.59-3.29-.92-5.83-3.65-6.56-6.98-1.76-8.01,5.62-14.1,13.22-11.27.14.05.84.3.84.41v4.88Z"/>
    <path class="cls-1" d="M103.9,33.46l1.43,3.61,1.43-3.83c.12-.02.09,0,.12.07.05.08.1.25.14.35.44,1.12.82,2.27,1.2,3.41l1.51-3.61h.97l-2.51,5.93-1.4-3.83-1.43,3.83-.08-.05-2.35-5.88h.97Z"/>
    <path class="cls-1" d="M78.97,37.24v-3.77h.86v5.93l-3.99-4.15v3.83h-.84s-.08-.08-.08-.08v-5.85l4.05,4.1Z"/>
    <path class="cls-1" d="M118.3,33.37c3.72-.23,4.17,5.15.78,5.74-4.15.73-4.77-5.49-.78-5.74ZM118.14,34.23c-2.38.33-2.17,4.36.63,4.08,2.51-.26,2.27-4.47-.63-4.08Z"/>
    <path class="cls-1" d="M128.59,33.46c1.61.14,2.29,1.61,1.24,2.86l-.67.4,1.64,2.24c.05.03-.05.11-.05.11h-.97l-1.54-2.18-.16-.08v2.26h-.92v-5.61c.46.03.97-.04,1.43,0ZM128.08,34.33v1.67c.65.05,1.39-.11,1.37-.89s-.78-.84-1.37-.78Z"/>
    <path class="cls-1" d="M137.2,33.46v2.16c.32-.18,1.98-2.16,2.13-2.16h1.11l-2.42,2.55,2.37,2.86.05.19h-1.11c-.63-.81-1.34-1.58-1.92-2.43-.06-.04-.21.11-.21.13v2.29h-.86v-5.61h.86Z"/>
    <polygon class="cls-1" points="89.01 33.46 89.01 34.33 86.8 34.33 86.8 35.67 88.95 35.67 88.95 36.54 86.8 36.54 86.8 38.21 89.01 38.21 89.01 39.07 85.93 39.07 85.93 33.46 89.01 33.46"/>
    <polygon class="cls-1" points="97.81 33.46 97.81 34.33 96.51 34.33 96.51 39.07 95.65 39.07 95.65 34.33 94.35 34.33 94.35 33.46 97.81 33.46"/>
    <path class="cls-1" d="M27.16,21.01l3.62-3.26c1.53,2.45-1.45,4.31-3.62,3.26Z"/>
    <path class="cls-1" d="M147.3,35.51s-.08-.89-.16-1.02l-.47,1.01-.12.07-.46-1.13c-.05,0-.15,1.04-.19,1.08-.03.03-.25,0-.32,0l.41-2.05.67,1.35.65-1.4.36,2.02c-.02.1-.35.09-.36.08Z"/>
    <polygon class="cls-1" points="145.41 33.57 145.41 33.89 144.97 33.89 144.97 35.51 144.65 35.51 144.65 33.89 144.22 33.89 144.22 33.57 145.41 33.57"/>
  </g>
</svg>