<?xml version="1.0" encoding="UTF-8"?>
<svg id="Layer_1" data-name="Layer 1" xmlns="http://www.w3.org/2000/svg" viewBox="0 0 154 48">
  <defs>
    <style>
      .cls-1 {
        fill: #afadad;
      }
    </style>
  </defs>
  <path class="cls-1" d="M106.94,29.68l2.64-6.93c.39-1.35,1.43-3.48-.23-4.36-.4-.22-1.17-.16-1.15-.69.01-.34.47-.38.74-.4,1.26-.11,3.44-.09,4.72,0,.13,0,.7.09.73.13.07.08.03.54-.1.63s-.61.06-.88.16c-.64.24-.56.83-.48,1.41.19,1.36,1.3,4.01,1.81,5.42.55,1.52,1.1,3.06,1.78,4.53l3.94-10.64c.22-1.01-1.17-.67-1.46-.85s-.14-.72.38-.79c.47-.06,4.18-.04,4.32.12-.12.92-1.45.78-1.63,1.87l-5.22,13.25c-.25.42-1.29.53-1.52.16l-3.99-10.24-4.09,10.42c-.49.03-1.02.07-1.48-.16-1.22-2.86-2.21-5.8-3.36-8.68-.62-1.55-1.26-3.41-2.02-4.86-.14-.26-.2-.5-.44-.71-.35-.3-1.04-.32-1.2-.52-.41-.51.09-.62.52-.65,1.2-.09,3.31-.11,4.49,0,.28.03.71.05.75.41.08.71-1.06.17-1.33.63-.32.53.63,2.94.86,3.62.88,2.6,1.97,5.14,2.88,7.74Z"/>
  <path class="cls-1" d="M71.54,28.42v-9.34c0-.15-1.15-.83-1.38-.92-.17-.07-.46-.03-.58-.11-.14-.1-.19-.54-.04-.65.23-.17,3.26-.14,3.78-.1.29.02,1.66.15,1.67.4-.43.63-1.6.32-1.71,1.15-.16,4.59-.22,9.21-.24,13.81-.31,0-.62.04-.93-.05-.74-.23-4.74-4.77-5.57-5.68-1.74-1.91-3.34-3.97-5.23-5.73-.02.25-.1.49-.12.74-.17,2.24-.17,6.38.15,8.57.21,1.46,1.09.87,1.84,1.46.39.3.12.64-.31.7-1.41.19-3.25-.15-4.71,0-1.25-.72.69-.86,1.03-1.26.49-.58.36-2.52.4-3.27.13-2.39.43-6.53-.02-8.8-.08-.39-.52-.9-.89-1.06s-1.26-.13-1.39-.22c-.14-.1-.18-.55-.04-.65.24-.17,3.87-.17,4.14,0l8.84,9.87c.44.34.78.98,1.32,1.14Z"/>
  <path class="cls-1" d="M44.3,17.42c.21.67-1.36.87-1.39.99.09.47-.09.91-.11,1.36-.13,2.35-.12,5.45,0,7.81s.84,3.86,3.39,4.07c3.13.26,4.59-1.63,4.78-4.53.1-1.59.22-6.91-.17-8.21-.3-.99-.92-.5-1.39-.91-.37-.32-.09-.64.34-.7s3.88-.03,4.08.06c.27.13.27.62.09.73-.15.1-.66-.05-.91.3-.19.27-.32,1.96-.34,2.41-.3,5.97,1.3,12.92-7.41,12.21-2.9-.24-4.71-2.12-4.89-4.98s.15-6.05-.24-8.82c-.05-.38-.16-.92-.56-1.05s-1,.1-.82-.66c.04-.15.49-.18.63-.19,1.2-.08,3.07-.09,4.26,0,.22.02.42.06.63.12Z"/>
  <path class="cls-1" d="M137.27,32.89h-5.92c-.15,0-.25-.41-.12-.58.1-.14.77-.17,1.05-.33.29-.17.69-.77.71-1.11.02-.32-1.01-3.02-1.22-3.28-.14-.17-.33-.18-.52-.2-1.55-.17-3.42.07-4.99.13-.11,1.08-1.62,3.48-.65,4.35.34.31,1.06.21,1.22.42.12.16.13.61-.07.61h-4.71c-.07,0-.47.2-.62-.01-.38-.53.72-.73.99-.88.58-.32.89-1.12,1.17-1.7,1.85-3.95,3.15-8.35,4.95-12.34.55-.25,1.49-1.09,1.79-.2,1.86,4.03,3.02,8.99,5.01,12.88.16.31.64,1.1.9,1.28.49.36,1.22.06,1.04.97ZM131.07,25.78l-2.24-5.39-1.9,5.39h4.14Z"/>
  <path class="cls-1" d="M142.79,26.47v4.64c0,.2.39.68.58.79.56.33,1.63.16,1.25,1.1h-5.69c-.07,0-.17-.19-.18-.29-.07-.78,1.65-.46,1.84-1.49.06-.3.11-.92.13-1.25.17-2.79.18-6.85,0-9.64-.02-.3-.12-1.28-.25-1.47-.33-.51-2.23-.35-1.7-1.2.14-.22,3.33-.23,3.83-.25,1.58-.05,2.96-.26,4.56.15,4.44,1.13,4.6,7.96.38,9.37-1.42.48-3.52.42-4.77-.46ZM143.91,18.59c-.42.07-1.08.35-1.11.84v5.93c.2.61,2.16.59,2.69.54,2.25-.23,2.95-1.77,2.82-3.84-.16-2.55-1.86-3.89-4.4-3.46Z"/>
  <path class="cls-1" d="M7.99,12.37l4.32,6.41c.43.42,1.36.57,1.61-.11L4.37,5.84c3.06,3.36,6.19,6.68,9.2,10.09.29.33,1.94,2.15,1.96,2.35.1,1.08-.65,1.81-1.61,2.13-.59.2-1.49.11-1.84.69-.29.5-.29,1.89-.49,2.6-.33,1.14-1.12,1.87-.94,3.17.21,1.55,2.49,1.89,2.63,3.33.21,2.07-2.69,2.93-4.3,3.25-.39-.9-1.07-1.68-1.42-2.59-1.39-3.63,1.39-4.39,2.52-7.17.45-1.11.35-2.47.92-3.44.19-.33.56-.45.56-.94,0-.33-.67-1.51-.87-1.89-.86-1.7-1.94-3.3-2.7-5.04Z"/>
  <path class="cls-1" d="M96.13,20.05c-1.29.25-1.12-1.2-1.99-1.74-1.76-1.12-5.32.27-4.2,2.7s6.36,3.19,6.85,6.7c.58,4.24-4.2,5.84-7.65,5.11-.5-.11-1.69-.37-1.75-.89-.05-.45-.07-2.91.31-3.04.66-.23.75,1.18.96,1.65.94,2.07,4.4,1.98,5.42-.09,1.61-3.27-2.59-4.36-4.49-5.88-3.47-2.78-2.11-7.29,2.34-7.62.59-.04,3.48.03,3.85.29s.22,2.27.35,2.81Z"/>
  <path class="cls-1" d="M83.82,18.08c-.09.06-.39.01-.56.07-.59.2-.92.38-1.02,1.05.28,3.72-.46,8.16.11,11.79.16,1.02.77.63,1.36.93.47.24.21.68-.28.75-1.07.14-3.7.08-4.84,0-.39-.03-.77-.03-.61-.5.2-.56,1.22-.21,1.56-.85.1-.18.22-.69.24-.91.07-.54.11-1.36.13-1.93.11-2.58.07-6.16-.12-8.72-.03-.44-.08-1.23-.5-1.46-.37-.2-1.82-.1-1.33-.88.05-.08.48-.13.61-.13,1.1-.08,3.8-.15,4.82.01.48.07.72.56.39.78Z"/>
  <path class="cls-1" d="M21.67,19.36c.5.23.93.59,1.47.77,2.32.78,4.8.33,6.87,2.09,1.52,1.29,2.01,3.58,1.29,5.42-.5,1.29-.42.35-.6-.15-1.23-3.48-9.8-3-9.02-8.14Z"/>
  <path class="cls-1" d="M26.69,16.41c.15.22.18,1.22.15,1.52-.05.47-.7,1.46.06,1.55s.99-1.3,1.14-1.83c.88.95,1.69,2.23,1.78,3.55-1.19-1.83-3.24-1.37-5.1-1.62-5.24-.7-4.87-5.56-10.02-7.09-.15-.05-.36,0-.4-.23,1.48-.04,2.83.45,3.96,1.38.3.24,1.26,1.36,1.43,1.42.21.08,1.11-.16,1.44-.17,1.44-.05,2.96.2,4.28.79.2.09,1.2.63,1.27.74Z"/>
  <path class="cls-1" d="M27.64,35.18c.09-.45.39-.86.45-1.33.44-3.34-4.18-5.69-3.09-9.22l2.98,1.67c3.7,1.87,3.37,7.26-.33,8.88Z"/>
  <path class="cls-1" d="M25.46,36.68c.07.25-.33.39-.5.48-1.07.55-2.24.49-3.06-.42-.95-1.06-1.38-3.72-2.96-4.04-.81-.17-1.83-.04-2.05.88-.4,1.69,2.15,2.18,2.26.75.09-1.26-1.68-1.42-1.56-.06-.42-.48-.04-1.09.51-1.21,1.58-.35,2.18,2.03.58,2.65-1.88.73-2.76-1.73-4.45-2.32-.25-.09-1.64-.29-1.63-.43,2.53-2.49,8.12-3.95,9.32.56.58,2.17.26,4.4,3.55,3.17Z"/>
  <path class="cls-1" d="M17.76,18.45c-2.59.03-3.74-3.2-3.56-5.39,2.44.24,2.2,2.08,2.82,3.78.09.25.85,1.51.74,1.61Z"/>
  <path class="cls-1" d="M16.84,29.68c1.83-1.71,5.84-.54,6.79-3.26.31-.89.12-1.47,0-2.36.65.49.89,1.55.79,2.34-.43,3.42-5.23,2.57-7.57,3.28Z"/>
  <path class="cls-1" d="M16.32,20.69c.56-.01,1.16.32,1.41.83.52,1.04-.95,1.48-1.75,1.46-1.72-.05-.84-2.25.34-2.28Z"/>
  <path class="cls-1" d="M27.18,16.44c-.18-1.11-1.72-1.35-2.41-2.01l2.07.69c.21-.16-.04-1.94.58-2.18-.18.75-.18,1.56.06,2.29l1.67,2.06c-.16.16-1.13-1.09-1.49-.92.02.54-.03,1.11-.15,1.63-.04.17-.12.61-.31.66-.08-.68.11-1.58,0-2.24Z"/>
</svg>